<?xml version="1.0" encoding="UTF-8"?>
<svg width="32" height="32" viewBox="0 0 32 32" fill="none" xmlns="http://www.w3.org/2000/svg">
    <!-- Shadow -->
    <rect x="7" y="5" width="20" height="24" rx="2" fill="#2C3E50" opacity="0.2"/>
    
    <!-- Document shape with gradient -->
    <defs>
        <linearGradient id="docGradient" x1="0%" y1="0%" x2="100%" y2="100%">
            <stop offset="0%" stop-color="#3498DB"/>
            <stop offset="100%" stop-color="#2980B9"/>
        </linearGradient>
    </defs>
    <rect x="6" y="4" width="20" height="24" rx="2" fill="url(#docGradient)"/>
    
    <!-- Document lines with varying widths -->
    <rect x="9" y="8" width="14" height="1.5" rx="0.75" fill="white" opacity="0.9"/>
    <rect x="9" y="11" width="12" height="1.5" rx="0.75" fill="white" opacity="0.9"/>
    <rect x="9" y="14" width="14" height="1.5" rx="0.75" fill="white" opacity="0.9"/>
    <rect x="9" y="17" width="10" height="1.5" rx="0.75" fill="white" opacity="0.9"/>
    <rect x="9" y="20" width="8" height="1.5" rx="0.75" fill="white" opacity="0.9"/>
    
    <!-- Corner fold with gradient -->
    <defs>
        <linearGradient id="foldGradient" x1="0%" y1="0%" x2="100%" y2="100%">
            <stop offset="0%" stop-color="#2C3E50"/>
            <stop offset="100%" stop-color="#34495E"/>
        </linearGradient>
    </defs>
    <path d="M24 4L26 6L24 8V4Z" fill="url(#foldGradient)"/>
    
    <!-- Highlight on the fold -->
    <path d="M24 4L25 5L24 6V4Z" fill="white" opacity="0.3"/>
    
    <!-- Decorative elements -->
    <circle cx="11" cy="8.75" r="0.5" fill="white"/>
    <circle cx="11" cy="11.75" r="0.5" fill="white"/>
    <circle cx="11" cy="14.75" r="0.5" fill="white"/>
    <circle cx="11" cy="17.75" r="0.5" fill="white"/>
    <circle cx="11" cy="20.75" r="0.5" fill="white"/>
</svg> 